# xmcd CD database file
#
# Track frame offsets:
#	150
#	12257
#	27265
#	38814
#	53433
#	66560
#	80056
#	92619
#	107012
#	119550
#	132948
#	146047
#	157562
#	170665
#	183242
#	200449
#	216741
#	231464
#	248762
#	259872
#	272239
#	284878
#	298719
#	313968
#	326959
#	337807
#
# Disc length: 4632 seconds
#
# Revision: 0
# Processed by: cddbd v1.5.2PL0 Copyright (c) Steve Scherf et al.
# Submitted via: CDex 1.51
#
DISCID=9a12161a
DTITLE=Nat King Cole - Nature Boy CD1
DYEAR=2019
DGENRE=Jazz
TTITLE0=Nature boy
TTITLE1=Mona Lisa
TTITLE2=Orange colored sky
TTITLE3=Unforgettable
TTITLE4=Somewhere along the way
TTITLE5=Funny
TTITLE6=Laura
TTITLE7=Mother nature and father time
TTITLE8=Pretend
TTITLE9=Tenderly
TTITLE10=Smile
TTITLE11=A blossom fell
TTITLE12=Too young to go steady
TTITLE13=Caravan
TTITLE14=Lonely one
TTITLE15=What is there to say
TTITLE16=Stardust
TTITLE17=These foolish things
TTITLE18=I understand
TTITLE19=Maria Elena
TTITLE20=Quizás, quizás, quizás
TTITLE21=She's funny that way
TTITLE22=Mood Indigo
TTITLE23=Madrid
TTITLE24=Perfidia
TTITLE25=Tres palabras
EXTD=YEAR: 2019
EXTT0=
EXTT1=
EXTT2=
EXTT3=
EXTT4=
EXTT5=
EXTT6=
EXTT7=
EXTT8=
EXTT9=
EXTT10=
EXTT11=
EXTT12=
EXTT13=
EXTT14=
EXTT15=
EXTT16=
EXTT17=
EXTT18=
EXTT19=
EXTT20=
EXTT21=
EXTT22=
EXTT23=
EXTT24=
EXTT25=
PLAYORDER=
